0
SECTION
2
HEADER
9
$INSUNITS
70
4
9
$ACADVER
1
AC1014
9
$HANDSEED
5
FFFF
0
ENDSEC
0
SECTION
2
TABLES
0
TABLE
2
VPORT
5
8
100
AcDbSymbolTable
0
ENDTAB
0
TABLE
2
LTYPE
5
5
100
AcDbSymbolTable
0
LTYPE
5
14
100
AcDbSymbolTableRecord
100
AcDbLinetypeTableRecord
2
BYBLOCK
70
0
0
LTYPE
5
15
100
AcDbSymbolTableRecord
100
AcDbLinetypeTableRecord
2
BYLAYER
70
0
0
ENDTAB
0
TABLE
2
LAYER
5
2
100
AcDbSymbolTable
70
2
0
LAYER
5
50
100
AcDbSymbolTableRecord
100
AcDbLayerTableRecord
2
0
70
0
6
CONTINUOUS
0
ENDTAB
0
TABLE
2
STYLE
5
3
100
AcDbSymbolTable
70
1
0
STYLE
5
11
100
AcDbSymbolTableRecord
100
AcDbTextStyleTableRecord
2
STANDARD
70
0
0
ENDTAB
0
TABLE
2
VIEW
5
6
100
AcDbSymbolTable
70
0
0
ENDTAB
0
TABLE
2
UCS
5
7
100
AcDbSymbolTable
70
0
0
ENDTAB
0
TABLE
2
APPID
5
9
100
AcDbSymbolTable
70
2
0
APPID
5
12
100
AcDbSymbolTableRecord
100
AcDbRegAppTableRecord
2
ACAD
70
0
0
ENDTAB
0
TABLE
2
DIMSTYLE
5
A
100
AcDbSymbolTable
70
1
0
ENDTAB
0
TABLE
2
BLOCK_RECORD
5
1
100
AcDbSymbolTable
70
1
0
BLOCK_RECORD
5
1F
100
AcDbSymbolTableRecord
100
AcDbBlockTableRecord
2
*MODEL_SPACE
0
BLOCK_RECORD
5
1B
100
AcDbSymbolTableRecord
100
AcDbBlockTableRecord
2
*PAPER_SPACE
0
ENDTAB
0
ENDSEC
0
SECTION
2
BLOCKS
0
BLOCK
5
20
100
AcDbEntity
100
AcDbBlockBegin
2
*MODEL_SPACE
0
ENDBLK
5
21
100
AcDbEntity
100
AcDbBlockEnd
0
BLOCK
5
1C
100
AcDbEntity
100
AcDbBlockBegin
2
*PAPER_SPACE
0
ENDBLK
5
1D
100
AcDbEntity
100
AcDbBlockEnd
0
ENDSEC
0
SECTION
2
ENTITIES
0
LWPOLYLINE
5
100
100
AcDbEntity
8
OUTER_PROFILES
100
AcDbPolyline
90
4
70
1
43
0.0
10
0
20
0
10
0
20
100.00000000000003
10
200
20
100.00000000000003
10
200
20
0
0
CIRCLE
5
101
100
AcDbEntity
8
INTERIOR_PROFILES
100
AcDbCircle
10
-21.552744315990893
20
94.41642840101548
30
0
40
2.1249999999999858
210
0
220
0
230
-1
0
CIRCLE
5
102
100
AcDbEntity
8
INTERIOR_PROFILES
100
AcDbCircle
10
-99.725999999999857
20
38.412500000000058
30
0
40
2.1249999999999858
210
0
220
0
230
-1
0
CIRCLE
5
103
100
AcDbEntity
8
INTERIOR_PROFILES
100
AcDbCircle
10
-19.102743999994729
20
12.720714200505832
30
0
40
2.1250000000000568
210
0
220
0
230
-1
0
CIRCLE
5
104
100
AcDbEntity
8
INTERIOR_PROFILES
100
AcDbCircle
10
-53.50274400000167
20
12.720714200505832
30
0
40
2.1250000000000568
210
0
220
0
230
-1
0
CIRCLE
5
105
100
AcDbEntity
8
INTERIOR_PROFILES
100
AcDbCircle
10
-53.50274400000167
20
35.120714200506207
30
0
40
2.1250000000000568
210
0
220
0
230
-1
0
LWPOLYLINE
5
106
100
AcDbEntity
8
INTERIOR_PROFILES
100
AcDbPolyline
90
4
70
1
43
0.0
10
47.302744315990921
20
90.66642840101548
10
25.302744315990893
20
90.66642840101548
10
25.302744315990893
20
48.666428401015445
10
47.302744315990921
20
48.666428401015445
0
CIRCLE
5
107
100
AcDbEntity
8
INTERIOR_PROFILES
100
AcDbCircle
10
-139.72599999999986
20
38.412500000000058
30
0
40
2.1249999999999858
210
0
220
0
230
-1
0
CIRCLE
5
108
100
AcDbEntity
8
INTERIOR_PROFILES
100
AcDbCircle
10
-79.725999999999857
20
38.412500000000058
30
0
40
2.1249999999999858
210
0
220
0
230
-1
0
CIRCLE
5
109
100
AcDbEntity
8
INTERIOR_PROFILES
100
AcDbCircle
10
-51.052744315990921
20
44.916428401015445
30
0
40
2.1249999999999858
210
0
220
0
230
-1
0
CIRCLE
5
110
100
AcDbEntity
8
INTERIOR_PROFILES
100
AcDbCircle
10
-21.552744315990893
20
44.916428401015445
30
0
40
2.1249999999999858
210
0
220
0
230
-1
0
CIRCLE
5
111
100
AcDbEntity
8
INTERIOR_PROFILES
100
AcDbCircle
10
-51.052744315990921
20
94.41642840101548
30
0
40
2.1250000000000213
210
0
220
0
230
-1
0
CIRCLE
5
112
100
AcDbEntity
8
INTERIOR_PROFILES
100
AcDbCircle
10
-119.72599999999986
20
38.412500000000058
30
0
40
2.1249999999999858
210
0
220
0
230
-1
0
CIRCLE
5
113
100
AcDbEntity
8
INTERIOR_PROFILES
100
AcDbCircle
10
-109.72599999999993
20
67.000000000000057
30
0
40
2.5
210
0
220
0
230
-1
0
CIRCLE
5
114
100
AcDbEntity
8
INTERIOR_PROFILES
100
AcDbCircle
10
-89.725999999999928
20
85.000000000000028
30
0
40
5.8250000000000313
210
0
220
0
230
-1
0
CIRCLE
5
115
100
AcDbEntity
8
INTERIOR_PROFILES
100
AcDbCircle
10
-69.725999999999928
20
15.000000000000036
30
0
40
5.8250000000000313
210
0
220
0
230
-1
0
CIRCLE
5
116
100
AcDbEntity
8
INTERIOR_PROFILES
100
AcDbCircle
10
-149.72599999999994
20
15.000000000000036
30
0
40
5.8250000000000313
210
0
220
0
230
-1
0
CIRCLE
5
117
100
AcDbEntity
8
INTERIOR_PROFILES
100
AcDbCircle
10
-69.725999999999928
20
56.00000000000005
30
0
40
2.5
210
0
220
0
230
-1
0
CIRCLE
5
118
100
AcDbEntity
8
INTERIOR_PROFILES
100
AcDbCircle
10
-99.725999999999928
20
61.500000000000092
30
0
40
2.1249999999999858
210
0
220
0
230
-1
0
LWPOLYLINE
5
119
100
AcDbEntity
8
INTERIOR_PROFILES
100
AcDbPolyline
90
8
70
1
43
0.0
10
41.302744315990978
20
10.920714200507753
42
-0.41421356237310197
10
38.302744315990935
20
13.920714200507724
10
38.302744315991006
20
33.920714200507582
42
-0.41421356237309503
10
41.302744315991049
20
36.920714200507625
10
46.302744315990836
20
36.920714200507625
42
-0.41421356237310197
10
49.302744315990878
20
33.920714200507653
10
49.302744315990736
20
13.920714200507724
42
-0.41421356237308815
10
46.302744315990836
20
10.920714200507753
0
CIRCLE
5
120
100
AcDbEntity
8
INTERIOR_PROFILES
100
AcDbCircle
10
-89.725999999999928
20
67.000000000000057
30
0
40
2.5
210
0
220
0
230
-1
0
CIRCLE
5
121
100
AcDbEntity
8
INTERIOR_PROFILES
100
AcDbCircle
10
-109.72599999999993
20
85.000000000000028
30
0
40
5.8250000000000313
210
0
220
0
230
-1
0
LWPOLYLINE
5
122
100
AcDbEntity
8
INTERIOR_PROFILES
100
AcDbPolyline
90
8
70
1
43
0.0
10
23.302744315991006
20
18.920714200507582
10
23.302744315990935
20
13.920714200507724
42
0.41421356237310197
10
26.302744315990978
20
10.920714200507753
10
31.302744315990836
20
10.920714200507753
42
0.41421356237308815
10
34.302744315990736
20
13.920714200507724
10
34.302744315990878
20
18.920714200507653
42
0.41421356237310197
10
31.302744315990836
20
21.920714200507625
10
26.302744315991049
20
21.920714200507625
42
0.41421356237309503
0
CIRCLE
5
123
100
AcDbEntity
8
INTERIOR_PROFILES
100
AcDbCircle
10
-169.72599999999994
20
65.000000000000028
30
0
40
2.9999999999999716
210
0
220
0
230
-1
0
CIRCLE
5
124
100
AcDbEntity
8
INTERIOR_PROFILES
100
AcDbCircle
10
-149.72599999999994
20
67.000000000000057
30
0
40
2.5
210
0
220
0
230
-1
0
CIRCLE
5
125
100
AcDbEntity
8
INTERIOR_PROFILES
100
AcDbCircle
10
-129.72599999999994
20
15.000000000000036
30
0
40
5.8250000000000313
210
0
220
0
230
-1
0
CIRCLE
5
126
100
AcDbEntity
8
INTERIOR_PROFILES
100
AcDbCircle
10
-89.725999999999928
20
15.000000000000036
30
0
40
5.8250000000000313
210
0
220
0
230
-1
0
CIRCLE
5
127
100
AcDbEntity
8
INTERIOR_PROFILES
100
AcDbCircle
10
-139.72599999999994
20
61.500000000000092
30
0
40
2.1249999999999858
210
0
220
0
230
-1
0
CIRCLE
5
128
100
AcDbEntity
8
INTERIOR_PROFILES
100
AcDbCircle
10
-79.725999999999928
20
61.500000000000092
30
0
40
2.1249999999999858
210
0
220
0
230
-1
0
CIRCLE
5
129
100
AcDbEntity
8
INTERIOR_PROFILES
100
AcDbCircle
10
-149.72599999999994
20
85.000000000000028
30
0
40
5.8250000000000313
210
0
220
0
230
-1
0
CIRCLE
5
130
100
AcDbEntity
8
INTERIOR_PROFILES
100
AcDbCircle
10
-119.72599999999993
20
61.500000000000092
30
0
40
2.1249999999999858
210
0
220
0
230
-1
0
CIRCLE
5
131
100
AcDbEntity
8
INTERIOR_PROFILES
100
AcDbCircle
10
-19.102743999994729
20
35.120714200506207
30
0
40
2.1250000000000568
210
0
220
0
230
-1
0
CIRCLE
5
132
100
AcDbEntity
8
INTERIOR_PROFILES
100
AcDbCircle
10
-109.72599999999993
20
15.000000000000036
30
0
40
5.8250000000000313
210
0
220
0
230
-1
0
CIRCLE
5
133
100
AcDbEntity
8
INTERIOR_PROFILES
100
AcDbCircle
10
-129.72599999999994
20
56.00000000000005
30
0
40
2.5
210
0
220
0
230
-1
0
CIRCLE
5
134
100
AcDbEntity
8
INTERIOR_PROFILES
100
AcDbCircle
10
-129.72599999999994
20
67.000000000000057
30
0
40
2.5
210
0
220
0
230
-1
0
CIRCLE
5
135
100
AcDbEntity
8
INTERIOR_PROFILES
100
AcDbCircle
10
-109.72599999999993
20
56.00000000000005
30
0
40
2.5
210
0
220
0
230
-1
0
CIRCLE
5
136
100
AcDbEntity
8
INTERIOR_PROFILES
100
AcDbCircle
10
-69.725999999999928
20
85.000000000000028
30
0
40
5.8250000000000313
210
0
220
0
230
-1
0
LWPOLYLINE
5
137
100
AcDbEntity
8
INTERIOR_PROFILES
100
AcDbPolyline
90
8
70
1
43
0.0
10
72.225999999999715
20
43.91250000000003
10
67.225999999999857
20
43.91250000000003
42
0.41421356237309503
10
64.225999999999814
20
40.912499999999987
10
64.225999999999743
20
35.912500000000058
42
0.41421356237310197
10
67.225999999999857
20
32.912500000000016
10
72.225999999999786
20
32.912500000000087
42
0.41421356237308815
10
75.225999999999686
20
35.912500000000058
10
75.225999999999758
20
40.912500000000058
42
0.41421356237310197
0
CIRCLE
5
138
100
AcDbEntity
8
INTERIOR_PROFILES
100
AcDbCircle
10
-149.72599999999994
20
56.00000000000005
30
0
40
2.5
210
0
220
0
230
-1
0
LWPOLYLINE
5
139
100
AcDbEntity
8
INTERIOR_PROFILES
100
AcDbPolyline
90
8
70
1
43
0.0
10
107.22599999999986
20
32.912500000000087
10
112.22599999999979
20
32.912500000000087
42
0.41421356237308815
10
115.22599999999969
20
35.912500000000058
10
115.22599999999976
20
40.912500000000058
42
0.41421356237310197
10
112.22599999999971
20
43.91250000000003
10
107.22599999999983
20
43.91250000000003
42
0.41421356237309503
10
104.22599999999977
20
40.912499999999987
10
104.22599999999981
20
35.912500000000058
42
0.41421356237310197
0
LWPOLYLINE
5
140
100
AcDbEntity
8
INTERIOR_PROFILES
100
AcDbPolyline
90
8
70
1
43
0.0
10
132.22599999999971
20
43.91250000000003
10
127.22599999999983
20
43.91250000000003
42
0.41421356237309503
10
124.22599999999977
20
40.912499999999987
10
124.22599999999977
20
35.912500000000058
42
0.41421356237310197
10
127.22599999999986
20
32.912500000000051
10
132.22599999999977
20
32.912500000000087
42
0.41421356237308815
10
135.22599999999969
20
35.912500000000058
10
135.22599999999977
20
40.912500000000058
42
0.41421356237310197
0
LWPOLYLINE
5
141
100
AcDbEntity
8
INTERIOR_PROFILES
100
AcDbPolyline
90
8
70
1
43
0.0
10
155.22599999999969
20
35.912500000000058
42
-0.41421356237308815
10
152.22599999999977
20
32.912500000000087
10
147.22599999999986
20
32.912500000000051
42
-0.41421356237310197
10
144.22599999999977
20
35.912500000000058
10
144.22599999999977
20
40.912499999999987
42
-0.41421356237309503
10
147.22599999999983
20
43.91250000000003
10
152.22599999999971
20
43.91250000000003
42
-0.41421356237310197
10
155.22599999999977
20
40.912500000000058
0
CIRCLE
5
142
100
AcDbEntity
8
INTERIOR_PROFILES
100
AcDbCircle
10
-169.72599999999994
20
85.000000000000028
30
0
40
5.7500000000000284
210
0
220
0
230
-1
0
CIRCLE
5
143
100
AcDbEntity
8
INTERIOR_PROFILES
100
AcDbCircle
10
-69.725999999999928
20
67.000000000000057
30
0
40
2.5
210
0
220
0
230
-1
0
LWPOLYLINE
5
144
100
AcDbEntity
8
INTERIOR_PROFILES
100
AcDbPolyline
90
8
70
1
43
0.0
10
84.225999999999814
20
40.912499999999987
42
-0.41421356237309503
10
87.225999999999857
20
43.91250000000003
10
92.225999999999715
20
43.91250000000003
42
-0.41421356237310197
10
95.225999999999758
20
40.912500000000058
10
95.225999999999686
20
35.912500000000058
42
-0.41421356237308815
10
92.225999999999786
20
32.912500000000087
10
87.225999999999857
20
32.912500000000016
42
-0.41421356237310197
10
84.225999999999743
20
35.912500000000058
0
CIRCLE
5
145
100
AcDbEntity
8
INTERIOR_PROFILES
100
AcDbCircle
10
-89.725999999999928
20
56.00000000000005
30
0
40
2.5
210
0
220
0
230
-1
0
CIRCLE
5
146
100
AcDbEntity
8
INTERIOR_PROFILES
100
AcDbCircle
10
-129.72599999999994
20
85.000000000000028
30
0
40
5.8250000000000313
210
0
220
0
230
-1
0
CIRCLE
5
147
100
AcDbEntity
8
INTERIOR_PROFILES
100
AcDbCircle
10
-169.72599999999994
20
15.000000000000036
30
0
40
2.9999999999999716
210
0
220
0
230
-1
0
CIRCLE
5
148
100
AcDbEntity
8
INTERIOR_PROFILES
100
AcDbCircle
10
-194.72599999999994
20
75.000000000000028
30
0
40
1.4999999999999858
210
0
220
0
230
-1
0
LWPOLYLINE
5
149
100
AcDbEntity
8
INTERIOR_PROFILES
100
AcDbPolyline
90
8
70
1
43
0.0
10
34.302744315990736
20
28.920714200507724
10
34.302744315990878
20
33.920714200507653
42
0.41421356237310197
10
31.302744315990836
20
36.920714200507625
10
26.302744315991049
20
36.920714200507625
42
0.41421356237309503
10
23.302744315991006
20
33.920714200507582
10
23.302744315990935
20
28.920714200507724
42
0.41421356237310197
10
26.302744315990978
20
25.920714200507753
10
31.302744315990836
20
25.920714200507753
42
0.41421356237308815
0
CIRCLE
5
150
100
AcDbEntity
8
INTERIOR_PROFILES
100
AcDbCircle
10
-5.2740000000000009
20
75.000000000000028
30
0
40
1.5000000000000124
210
0
220
0
230
-1
0
CIRCLE
5
151
100
AcDbEntity
8
INTERIOR_PROFILES
100
AcDbCircle
10
-194.72599999999994
20
25.000000000000036
30
0
40
1.4999999999999858
210
0
220
0
230
-1
0
CIRCLE
5
152
100
AcDbEntity
8
INTERIOR_PROFILES
100
AcDbCircle
10
-5.2740000000000009
20
25.000000000000036
30
0
40
1.5000000000000124
210
0
220
0
230
-1
0
ENDSEC
0
SECTION
2
OBJECTS
0
DICTIONARY
5
C
100
AcDbDictionary
3
ACAD_GROUP
350
D
3
ACAD_MLINESTYLE
350
17
0
DICTIONARY
5
D
100
AcDbDictionary
0
DICTIONARY
5
1A
330
C
100
AcDbDictionary
0
DICTIONARY
5
17
100
AcDbDictionary
0
ENDSEC
0
EOF
