0
SECTION
2
HEADER
9
$INSUNITS
70
4
9
$ACADVER
1
AC1014
9
$HANDSEED
5
FFFF
0
ENDSEC
0
SECTION
2
TABLES
0
TABLE
2
VPORT
5
8
100
AcDbSymbolTable
0
ENDTAB
0
TABLE
2
LTYPE
5
5
100
AcDbSymbolTable
0
LTYPE
5
14
100
AcDbSymbolTableRecord
100
AcDbLinetypeTableRecord
2
BYBLOCK
70
0
0
LTYPE
5
15
100
AcDbSymbolTableRecord
100
AcDbLinetypeTableRecord
2
BYLAYER
70
0
0
ENDTAB
0
TABLE
2
LAYER
5
2
100
AcDbSymbolTable
70
2
0
LAYER
5
50
100
AcDbSymbolTableRecord
100
AcDbLayerTableRecord
2
0
70
0
6
CONTINUOUS
0
ENDTAB
0
TABLE
2
STYLE
5
3
100
AcDbSymbolTable
70
1
0
STYLE
5
11
100
AcDbSymbolTableRecord
100
AcDbTextStyleTableRecord
2
STANDARD
70
0
0
ENDTAB
0
TABLE
2
VIEW
5
6
100
AcDbSymbolTable
70
0
0
ENDTAB
0
TABLE
2
UCS
5
7
100
AcDbSymbolTable
70
0
0
ENDTAB
0
TABLE
2
APPID
5
9
100
AcDbSymbolTable
70
2
0
APPID
5
12
100
AcDbSymbolTableRecord
100
AcDbRegAppTableRecord
2
ACAD
70
0
0
ENDTAB
0
TABLE
2
DIMSTYLE
5
A
100
AcDbSymbolTable
70
1
0
ENDTAB
0
TABLE
2
BLOCK_RECORD
5
1
100
AcDbSymbolTable
70
1
0
BLOCK_RECORD
5
1F
100
AcDbSymbolTableRecord
100
AcDbBlockTableRecord
2
*MODEL_SPACE
0
BLOCK_RECORD
5
1B
100
AcDbSymbolTableRecord
100
AcDbBlockTableRecord
2
*PAPER_SPACE
0
ENDTAB
0
ENDSEC
0
SECTION
2
BLOCKS
0
BLOCK
5
20
100
AcDbEntity
100
AcDbBlockBegin
2
*MODEL_SPACE
0
ENDBLK
5
21
100
AcDbEntity
100
AcDbBlockEnd
0
BLOCK
5
1C
100
AcDbEntity
100
AcDbBlockBegin
2
*PAPER_SPACE
0
ENDBLK
5
1D
100
AcDbEntity
100
AcDbBlockEnd
0
ENDSEC
0
SECTION
2
ENTITIES
0
LWPOLYLINE
5
100
100
AcDbEntity
8
OUTER_PROFILES
100
AcDbPolyline
90
10
70
1
43
0.0
10
181.69824495697014
20
159.99999999999989
42
-0.41421356237309503
10
191.69824495697014
20
149.99999999999989
10
191.69824495697014
20
9.9999999999999645
42
-0.41421356237309503
10
181.69824495697014
20
-3.4416913763379853e-14
10
-1.8369701987210296e-15
20
0
42
-0.99999999999999989
10
1.8369701987210296e-15
20
20
10
81.698244956970143
20
20.000000000000018
42
0.41421356237309476
10
91.698244956970143
20
30.000000000000007
10
91.698244956970143
20
149.99999999999994
42
-0.41421356237309503
10
101.69824495697014
20
159.99999999999994
0
LWPOLYLINE
5
101
100
AcDbEntity
8
INTERIOR_PROFILES
100
AcDbPolyline
90
6
70
1
43
0.0
10
147.47174764932367
20
50.500000000000128
10
144.58499630337545
20
55.500000000528061
10
138.81149361086929
20
55.500000000527848
10
135.92474226461655
20
50.499999999999702
10
138.81149361086972
20
45.499999999471768
10
144.58499630337573
20
45.500000000000057
0
LWPOLYLINE
5
102
100
AcDbEntity
8
INTERIOR_PROFILES
100
AcDbPolyline
90
6
70
1
43
0.0
10
163.47174764932359
20
82.500000000000142
10
160.58499630337533
20
87.500000000528075
10
154.81149361086935
20
87.500000000527862
10
151.92474226461641
20
82.499999999999716
10
154.81149361086963
20
77.499999999471768
10
160.58499630337562
20
77.500000000000057
0
LWPOLYLINE
5
103
100
AcDbEntity
8
INTERIOR_PROFILES
100
AcDbPolyline
90
6
70
1
43
0.0
10
123.47174764932385
20
98.500000000000028
10
120.58499630337545
20
103.50000000052795
10
114.81149361086946
20
103.50000000052781
10
111.9247422646167
20
98.499999999999588
10
114.8114936108699
20
93.499999999471655
10
120.5849963033759
20
93.499999999999872
0
LWPOLYLINE
5
104
100
AcDbEntity
8
INTERIOR_PROFILES
100
AcDbPolyline
90
6
70
1
43
0.0
10
152.58499630337568
20
29.500000000000153
10
155.47174764932365
20
34.500000000000227
10
152.58499630337539
20
39.500000000528161
10
146.81149361086938
20
39.500000000527947
10
143.92474226461647
20
34.499999999999801
10
146.81149361086969
20
29.499999999471864
0
LWPOLYLINE
5
105
100
AcDbEntity
8
INTERIOR_PROFILES
100
AcDbPolyline
90
6
70
1
43
0.0
10
127.92474226461658
20
66.499999999999616
10
130.8114936108698
20
61.499999999471683
10
136.58499630337579
20
61.499999999999972
10
139.47174764932373
20
66.500000000000114
10
136.58499630337536
20
71.500000000528047
10
130.81149361086938
20
71.500000000527763
0
LWPOLYLINE
5
106
100
AcDbEntity
8
INTERIOR_PROFILES
100
AcDbPolyline
90
6
70
1
43
0.0
10
170.81149361086949
20
109.49999999947181
10
176.58499630337548
20
109.5000000000001
10
179.47174764932345
20
114.50000000000024
10
176.58499630337519
20
119.50000000052817
10
170.81149361086921
20
119.50000000052789
10
167.92474226461627
20
114.49999999999982
0
LWPOLYLINE
5
107
100
AcDbEntity
8
INTERIOR_PROFILES
100
AcDbPolyline
90
6
70
1
43
0.0
10
103.92474226461674
20
114.49999999999977
10
106.81149361086996
20
109.49999999947178
10
112.58499630337596
20
109.50000000000006
10
115.47174764932377
20
114.5000000000002
10
112.58499630337552
20
119.50000000052813
10
106.81149361086952
20
119.50000000052785
0
LWPOLYLINE
5
108
100
AcDbEntity
8
INTERIOR_PROFILES
100
AcDbPolyline
90
6
70
1
43
0.0
10
162.81149361086929
20
135.50000000052779
10
159.92474226461636
20
130.49999999999972
10
162.81149361086958
20
125.49999999947164
10
168.58499630337553
20
125.5
10
171.4717476493235
20
130.50000000000014
10
168.58499630337525
20
135.50000000052808
0
CIRCLE
5
109
100
AcDbEntity
8
INTERIOR_PROFILES
100
AcDbCircle
10
-50
20
10.000000000000018
30
0
40
2.9999999999999716
210
0
220
0
230
-1
0
CIRCLE
5
110
100
AcDbEntity
8
INTERIOR_PROFILES
100
AcDbCircle
10
0
20
10
30
0
40
2.9999999999999716
210
0
220
0
230
-1
0
LWPOLYLINE
5
111
100
AcDbEntity
8
INTERIOR_PROFILES
100
AcDbPolyline
90
6
70
1
43
0.0
10
127.92474226461661
20
34.499999999999801
10
130.81149361086983
20
29.499999999471864
10
136.58499630337582
20
29.500000000000153
10
139.47174764932379
20
34.500000000000227
10
136.58499630337536
20
39.500000000528161
10
130.81149361086938
20
39.500000000527976
0
CIRCLE
5
112
100
AcDbEntity
8
INTERIOR_PROFILES
100
AcDbCircle
10
-182.94824495697011
20
152.49999999999989
30
0
40
1.6000000000000014
210
0
220
0
230
-1
0
CIRCLE
5
113
100
AcDbEntity
8
INTERIOR_PROFILES
100
AcDbCircle
10
-182.94824495697011
20
12.499999999999929
30
0
40
1.6000000000000014
210
0
220
0
230
-1
0
LWPOLYLINE
5
114
100
AcDbEntity
8
INTERIOR_PROFILES
100
AcDbPolyline
90
6
70
1
43
0.0
10
146.81149361086938
20
103.50000000052776
10
143.92474226461647
20
98.499999999999687
10
146.81149361086966
20
93.499999999471697
10
152.58499630337568
20
93.499999999999972
10
155.47174764932365
20
98.500000000000114
10
152.58499630337539
20
103.50000000052805
0
LWPOLYLINE
5
115
100
AcDbEntity
8
INTERIOR_PROFILES
100
AcDbPolyline
90
6
70
1
43
0.0
10
135.92474226461655
20
114.4999999999998
10
138.81149361086972
20
109.4999999994718
10
144.58499630337573
20
109.50000000000009
10
147.47174764932367
20
114.50000000000023
10
144.58499630337545
20
119.50000000052816
10
138.81149361086929
20
119.50000000052788
0
LWPOLYLINE
5
116
100
AcDbEntity
8
INTERIOR_PROFILES
100
AcDbPolyline
90
6
70
1
43
0.0
10
139.47174764932373
20
130.5000000000002
10
136.58499630337536
20
135.50000000052813
10
130.81149361086938
20
135.50000000052785
10
127.92474226461658
20
130.49999999999963
10
130.8114936108698
20
125.4999999994717
10
136.58499630337579
20
125.50000000000006
0
LWPOLYLINE
5
117
100
AcDbEntity
8
INTERIOR_PROFILES
100
AcDbPolyline
90
6
70
1
43
0.0
10
114.81149361086992
20
29.499999999471864
10
120.58499630337592
20
29.500000000000188
10
123.47174764932387
20
34.500000000000227
10
120.58499630337548
20
39.500000000528189
10
114.81149361086949
20
39.500000000527976
10
111.9247422646167
20
34.499999999999801
0
LWPOLYLINE
5
118
100
AcDbEntity
8
INTERIOR_PROFILES
100
AcDbPolyline
90
6
70
1
43
0.0
10
168.58499630337553
20
61.499999999999986
10
171.4717476493235
20
66.500000000000128
10
168.58499630337525
20
71.500000000528061
10
162.81149361086929
20
71.500000000527848
10
159.92474226461636
20
66.499999999999702
10
162.81149361086958
20
61.499999999471697
0
LWPOLYLINE
5
119
100
AcDbEntity
8
INTERIOR_PROFILES
100
AcDbPolyline
90
6
70
1
43
0.0
10
131.47174764932379
20
82.500000000000156
10
128.58499630337542
20
87.50000000052809
10
122.81149361086943
20
87.500000000527876
10
119.92474226461665
20
82.49999999999973
10
122.81149361086986
20
77.499999999471768
10
128.58499630337585
20
77.500000000000085
0
LWPOLYLINE
5
120
100
AcDbEntity
8
INTERIOR_PROFILES
100
AcDbPolyline
90
6
70
1
43
0.0
10
170.81149361086921
20
55.500000000527869
10
167.92474226461627
20
50.499999999999723
10
170.81149361086949
20
45.49999999947179
10
176.58499630337548
20
45.500000000000078
10
179.47174764932345
20
50.500000000000185
10
176.58499630337519
20
55.500000000528082
0
LWPOLYLINE
5
121
100
AcDbEntity
8
INTERIOR_PROFILES
100
AcDbPolyline
90
6
70
1
43
0.0
10
106.81149361086952
20
55.500000000527876
10
103.92474226461674
20
50.499999999999723
10
106.81149361086996
20
45.499999999471754
10
112.58499630337596
20
45.500000000000078
10
115.47174764932377
20
50.500000000000149
10
112.58499630337553
20
55.50000000052809
0
CIRCLE
5
122
100
AcDbEntity
8
INTERIOR_PROFILES
100
AcDbCircle
10
-100.44824495697011
20
152.49999999999994
30
0
40
1.6000000000000014
210
0
220
0
230
-1
0
LWPOLYLINE
5
123
100
AcDbEntity
8
INTERIOR_PROFILES
100
AcDbPolyline
90
6
70
1
43
0.0
10
122.81149361086986
20
45.499999999471768
10
128.58499630337585
20
45.500000000000099
10
131.47174764932379
20
50.500000000000171
10
128.58499630337542
20
55.500000000528104
10
122.81149361086943
20
55.500000000527891
10
119.92474226461665
20
50.499999999999744
0
LWPOLYLINE
5
124
100
AcDbEntity
8
INTERIOR_PROFILES
100
AcDbPolyline
90
6
70
1
43
0.0
10
162.81149361086958
20
29.499999999471882
10
168.58499630337559
20
29.500000000000171
10
171.4717476493235
20
34.500000000000242
10
168.58499630337525
20
39.500000000528175
10
162.81149361086929
20
39.500000000527962
10
159.92474226461638
20
34.499999999999815
0
LWPOLYLINE
5
125
100
AcDbEntity
8
INTERIOR_PROFILES
100
AcDbPolyline
90
6
70
1
43
0.0
10
152.58499630337568
20
61.499999999999979
10
155.47174764932365
20
66.500000000000114
10
152.58499630337539
20
71.500000000528047
10
146.81149361086941
20
71.500000000527834
10
143.92474226461647
20
66.499999999999687
10
146.81149361086966
20
61.49999999947169
0
LWPOLYLINE
5
126
100
AcDbEntity
8
INTERIOR_PROFILES
100
AcDbPolyline
90
6
70
1
43
0.0
10
138.81149361086972
20
77.499999999471768
10
144.58499630337573
20
77.500000000000057
10
147.47174764932367
20
82.500000000000128
10
144.58499630337545
20
87.500000000528061
10
138.81149361086929
20
87.500000000527848
10
135.92474226461655
20
82.499999999999702
0
LWPOLYLINE
5
127
100
AcDbEntity
8
INTERIOR_PROFILES
100
AcDbPolyline
90
6
70
1
43
0.0
10
136.58499630337579
20
93.499999999999957
10
139.47174764932373
20
98.500000000000171
10
136.58499630337536
20
103.5000000005281
10
130.81149361086938
20
103.50000000052782
10
127.92474226461658
20
98.499999999999602
10
130.8114936108698
20
93.499999999471669
0
CIRCLE
5
128
100
AcDbEntity
8
INTERIOR_PROFILES
100
AcDbCircle
10
-100.44824495697013
20
12.499999999999911
30
0
40
1.6000000000000014
210
0
220
0
230
-1
0
LWPOLYLINE
5
129
100
AcDbEntity
8
INTERIOR_PROFILES
100
AcDbPolyline
90
6
70
1
43
0.0
10
119.92474226461665
20
114.4999999999998
10
122.81149361086986
20
109.4999999994718
10
128.58499630337585
20
109.50000000000009
10
131.47174764932379
20
114.50000000000023
10
128.58499630337542
20
119.50000000052816
10
122.81149361086943
20
119.50000000052788
0
LWPOLYLINE
5
130
100
AcDbEntity
8
INTERIOR_PROFILES
100
AcDbPolyline
90
6
70
1
43
0.0
10
146.81149361086966
20
125.49999999947163
10
152.58499630337568
20
125.49999999999999
10
155.47174764932365
20
130.50000000000014
10
152.58499630337539
20
135.50000000052808
10
146.81149361086938
20
135.50000000052779
10
143.92474226461647
20
130.49999999999972
0
LWPOLYLINE
5
131
100
AcDbEntity
8
INTERIOR_PROFILES
100
AcDbPolyline
90
6
70
1
43
0.0
10
154.81149361086935
20
119.50000000052789
10
151.92474226461641
20
114.49999999999982
10
154.81149361086963
20
109.49999999947181
10
160.58499630337562
20
109.5000000000001
10
163.47174764932359
20
114.50000000000024
10
160.58499630337533
20
119.50000000052817
0
LWPOLYLINE
5
132
100
AcDbEntity
8
INTERIOR_PROFILES
100
AcDbPolyline
90
6
70
1
43
0.0
10
168.58499630337525
20
103.50000000052805
10
162.81149361086929
20
103.50000000052776
10
159.92474226461636
20
98.499999999999687
10
162.81149361086958
20
93.499999999471697
10
168.58499630337553
20
93.499999999999972
10
171.4717476493235
20
98.500000000000114
0
LWPOLYLINE
5
133
100
AcDbEntity
8
INTERIOR_PROFILES
100
AcDbPolyline
90
6
70
1
43
0.0
10
111.92474226461668
20
130.49999999999963
10
114.8114936108699
20
125.4999999994717
10
120.5849963033759
20
125.49999999999991
10
123.47174764932385
20
130.50000000000006
10
120.58499630337545
20
135.50000000052799
10
114.81149361086946
20
135.50000000052785
0
LWPOLYLINE
5
134
100
AcDbEntity
8
INTERIOR_PROFILES
100
AcDbPolyline
90
6
70
1
43
0.0
10
120.58499630337592
20
61.499999999999886
10
123.47174764932385
20
66.500000000000028
10
120.58499630337545
20
71.500000000527962
10
114.81149361086948
20
71.500000000527749
10
111.9247422646167
20
66.499999999999602
10
114.8114936108699
20
61.499999999471669
0
LWPOLYLINE
5
135
100
AcDbEntity
8
INTERIOR_PROFILES
100
AcDbPolyline
90
6
70
1
43
0.0
10
160.58499630337562
20
45.500000000000078
10
163.47174764932359
20
50.500000000000149
10
160.58499630337533
20
55.500000000528075
10
154.81149361086935
20
55.500000000527862
10
151.92474226461641
20
50.499999999999723
10
154.81149361086963
20
45.49999999947179
0
LWPOLYLINE
5
136
100
AcDbEntity
8
INTERIOR_PROFILES
100
AcDbPolyline
90
6
70
1
43
0.0
10
179.47174764932345
20
82.500000000000171
10
176.58499630337519
20
87.500000000528075
10
170.81149361086921
20
87.500000000527862
10
167.92474226461627
20
82.499999999999716
10
170.81149361086949
20
77.499999999471783
10
176.58499630337548
20
77.500000000000071
0
LWPOLYLINE
5
137
100
AcDbEntity
8
INTERIOR_PROFILES
100
AcDbPolyline
90
6
70
1
43
0.0
10
115.47174764932377
20
82.500000000000142
10
112.58499630337553
20
87.500000000528075
10
106.81149361086953
20
87.500000000527862
10
103.92474226461674
20
82.499999999999716
10
106.81149361086996
20
77.499999999471754
10
112.58499630337596
20
77.500000000000085
0
LINE
5
138
100
AcDbEntity
8
BEND
100
AcDbLine
10
58.022641563504671
20
20
30
-1.8924484515552865e-12
11
58.022641563504671
21
-3.5527136788005009e-14
31
-1.8930035630675991e-12
0
LINE
5
139
100
AcDbEntity
8
BEND_EXTENT
100
AcDbLine
10
59.746244956970145
20
20.000000000000036
30
-1.8917063448593634e-12
11
59.746244956970152
21
0
31
-1.8917063448593634e-12
0
LINE
5
140
100
AcDbEntity
8
BEND_EXTENT
100
AcDbLine
10
56.29903817003914
20
0
30
-1.9004825887874241e-12
11
56.299038170039147
21
20.000000000000036
31
-1.8999274772751115e-12
0
ENDSEC
0
SECTION
2
OBJECTS
0
DICTIONARY
5
C
100
AcDbDictionary
3
ACAD_GROUP
350
D
3
ACAD_MLINESTYLE
350
17
0
DICTIONARY
5
D
100
AcDbDictionary
0
DICTIONARY
5
1A
330
C
100
AcDbDictionary
0
DICTIONARY
5
17
100
AcDbDictionary
0
ENDSEC
0
EOF
